<svg version="1.2" xmlns="http://www.w3.org/2000/svg" viewBox="0 0 1024 1024" width="1024" height="1024">
	<style>
		.s0 { fill: #303446 } 
		.s1 { fill: #81c8be } 
	</style>
	<path id="Shape 1" fill-rule="evenodd" class="s0" d="m512 12c276.14 0 500 223.86 500 500 0 276.14-223.86 500-500 500-276.14 0-500-223.86-500-500 0-276.14 223.86-500 500-500z"/>
	<path id="text2175" class="s1" d="m541.77 691.72q58.55-17.12 83.68-66.01 25.13-48.88 39.5-189.73 12.15-115.45 21.26-154.39 9.11-38.94 36.18-62.41 27.07-23.48 71.26-23.48 25.96 0 56.34 7.73v20.99q-6.08-0.55-10.5-0.55-23.75 0-40.32 28.72-16.57 28.73-28.72 143.62-11.6 102.18-25.69 145.54-14.08 43.36-45.29 85.07-31.21 41.7-68.77 62.69-37.56 20.99-88.93 31.49v230.33h-60.21v-230.33q-53.58-11.05-92.24-33.7-38.67-22.65-67.67-63.8-29-41.15-43.08-83.96-14.09-42.8-26.24-152.17-11.6-107.16-28.17-135.33-16.57-28.17-39.77-28.17-4.97 0-11.05 0.55v-20.99q30.38-7.73 56.34-7.73 43.64 0 70.71 23.48 27.06 23.47 37.28 62.41 10.22 38.94 19.06 139.47 14.91 164.61 43.36 209.9 28.44 45.29 81.47 60.76v-496.02h60.21z"/>
</svg>